<svg width="15" height="20" viewBox="0 0 15 20" fill="none" xmlns="http://www.w3.org/2000/svg">
<path d="M1.66667 13.3333H10.8333C11.0543 13.3333 11.2663 13.2455 11.4226 13.0893C11.5789 12.933 11.6667 12.721 11.6667 12.5C11.6667 12.279 11.5789 12.067 11.4226 11.9107C11.2663 11.7545 11.0543 11.6667 10.8333 11.6667H4.16667C3.0616 11.6667 2.00179 11.2277 1.22039 10.4463C0.438987 9.66488 0 8.60507 0 7.5C0 6.39493 0.438987 5.33512 1.22039 4.55372C2.00179 3.77232 3.0616 3.33333 4.16667 3.33333H5.83333V0H9.16667V3.33333H13.3333V6.66667H4.16667C3.94565 6.66667 3.73369 6.75446 3.57741 6.91074C3.42113 7.06702 3.33333 7.27899 3.33333 7.5C3.33333 7.72101 3.42113 7.93298 3.57741 8.08926C3.73369 8.24554 3.94565 8.33333 4.16667 8.33333H10.8333C11.9384 8.33333 12.9982 8.77232 13.7796 9.55372C14.561 10.3351 15 11.3949 15 12.5C15 13.6051 14.561 14.6649 13.7796 15.4463C12.9982 16.2277 11.9384 16.6667 10.8333 16.6667H9.16667V20H5.83333V16.6667H1.66667V13.3333Z" fill="white"/>
</svg>
