<svg width="47" height="16" viewBox="0 0 47 16" fill="none" xmlns="http://www.w3.org/2000/svg">
<path d="M43.5396 15.3469L43.0989 13.1438H38.1757L37.3924 15.3312L33.4463 15.3391C35.3249 10.8215 37.2075 6.30555 39.0942 1.79132C39.4153 1.02561 39.9852 0.635902 40.8253 0.639819C41.4677 0.645694 42.5154 0.645693 43.9704 0.641776L47.0215 15.341L43.5396 15.3469ZM39.2841 10.126H42.4566L41.2718 4.60348L39.2841 10.126ZM13.8473 0.63786L17.8149 0.641776L11.6814 15.3489L7.66486 15.3449C6.65485 11.4602 5.6574 7.57227 4.67253 3.68111C4.47669 2.90561 4.08894 2.36315 3.34282 2.10661C2.67894 1.87748 1.57248 1.52499 0.0214844 1.04519V0.643735H6.36061C7.45728 0.643735 8.09765 1.17444 8.30328 2.26328C8.51086 3.35407 9.03178 6.13098 9.86994 10.594L13.8473 0.63786ZM23.2669 0.641776L20.1297 15.3449L16.354 15.341L19.4873 0.63786L23.2669 0.641776ZM30.924 0.369568C32.0539 0.369568 33.4777 0.722068 34.2962 1.04519L33.6343 4.09432C32.8941 3.79665 31.676 3.39519 30.6518 3.4089C29.1634 3.43436 28.243 4.05907 28.243 4.65832C28.243 5.63357 29.841 6.12511 31.486 7.19044C33.3641 8.40461 33.6108 9.4954 33.5873 10.6802C33.5619 13.1399 31.486 15.5662 27.1072 15.5662C25.1097 15.5369 24.389 15.3684 22.7597 14.7907L23.449 11.6084C25.1077 12.3037 25.8108 12.5249 27.2286 12.5249C28.527 12.5249 29.6413 12.0001 29.6511 11.0856C29.6589 10.4354 29.2594 10.1123 27.8024 9.30936C26.3454 8.50449 24.3009 7.39019 24.3283 5.15378C24.3616 2.29069 27.0739 0.369568 30.9259 0.369568H30.924Z" fill="white"/>
</svg>
